<?xml version="1.0" standalone="no"?>
<!DOCTYPE svg PUBLIC "-//W3C//DTD SVG 20010904//EN"
 "http://www.w3.org/TR/2001/REC-SVG-20010904/DTD/svg10.dtd">
<svg version="1.0" xmlns="http://www.w3.org/2000/svg"
 width="4811.000000pt" height="3629.000000pt" viewBox="0 0 4811.000000 3629.000000"
 preserveAspectRatio="xMidYMid meet">

<g transform="translate(0.000000,3629.000000) scale(0.100000,-0.100000)"
fill="#000000" stroke="none">
<path d="M6798 36270 c-119 -22 -182 -42 -273 -88 -238 -118 -398 -322 -472
-601 -22 -82 -26 -120 -28 -265 l-2 -168 -39 -46 c-124 -147 -193 -276 -221
-415 -14 -69 -21 -87 -33 -83 -8 2 -53 18 -100 35 -131 47 -267 64 -445 58
-82 -2 -157 -8 -166 -11 -10 -5 -20 3 -31 27 -24 50 -113 157 -171 205 -67 56
-216 128 -291 141 -149 27 -289 7 -419 -61 -192 -100 -307 -293 -307 -516 0
-75 -2 -83 -17 -78 -87 26 -467 86 -728 116 -200 23 -330 47 -452 85 -81 25
-82 26 -88 63 -25 153 -131 344 -230 412 -57 40 -142 70 -193 70 -25 0 -71 15
-126 41 -124 58 -188 69 -413 69 -208 0 -266 -10 -355 -63 -138 -82 -217 -249
-188 -399 6 -35 13 -112 15 -173 3 -123 20 -195 70 -305 18 -41 36 -98 40
-127 15 -131 72 -219 195 -302 96 -64 167 -95 265 -113 l63 -12 26 -86 c38
-124 62 -250 86 -460 23 -205 69 -501 100 -643 11 -50 20 -91 20 -92 0 0 -44
0 -98 0 -125 0 -213 -27 -316 -95 -117 -79 -203 -203 -240 -346 -21 -80 -20
-229 0 -313 38 -155 151 -309 294 -402 l77 -50 -10 -57 c-13 -80 -2 -352 18
-442 9 -41 31 -111 48 -155 l32 -81 -88 -17 c-146 -29 -268 -91 -398 -203
l-73 -63 -97 6 c-235 14 -499 -58 -665 -182 -212 -160 -328 -372 -365 -675
-10 -78 -10 -113 -1 -157 44 -210 234 -342 450 -312 35 5 79 17 99 28 34 17
39 17 75 2 34 -14 38 -19 33 -41 -41 -177 -49 -251 -49 -460 0 -198 2 -224 26
-327 32 -136 82 -261 146 -367 55 -91 179 -228 270 -296 126 -96 325 -180 467
-198 l60 -7 0 -9130 0 -9129 -87 -17 c-116 -23 -176 -43 -278 -94 -158 -79
-291 -193 -393 -336 -58 -82 -137 -248 -166 -349 -64 -228 -67 -552 -7 -813 9
-38 16 -70 16 -72 0 -3 -17 -12 -37 -20 -35 -15 -40 -14 -88 7 -41 19 -67 23
-150 23 -92 0 -106 -3 -167 -32 -85 -40 -151 -106 -191 -191 -30 -63 -32 -74
-31 -172 3 -305 152 -603 380 -757 182 -124 365 -175 616 -172 l138 1 52 -47
c67 -60 145 -113 227 -154 66 -34 194 -71 243 -71 15 0 28 -4 28 -9 0 -5 -12
-39 -26 -77 -49 -130 -65 -220 -70 -389 -3 -88 -2 -185 3 -215 l8 -55 -75 -49
c-135 -88 -236 -215 -282 -356 -29 -90 -36 -263 -14 -351 68 -271 291 -449
562 -449 86 0 95 -2 90 -17 -27 -89 -86 -454 -116 -718 -22 -195 -40 -300 -71
-410 -40 -139 -37 -134 -77 -140 -143 -24 -313 -111 -392 -201 -46 -52 -88
-146 -95 -213 -4 -31 -21 -90 -40 -131 -63 -143 -76 -231 -79 -550 -1 -97 2
-110 28 -165 36 -72 106 -144 172 -178 92 -46 162 -56 364 -53 205 3 262 14
390 70 41 19 105 38 142 44 82 12 141 40 203 94 81 72 164 222 190 343 7 37
17 71 22 75 15 14 171 59 275 79 57 11 168 27 248 36 216 24 416 54 592 89
l158 32 0 -81 c0 -165 57 -304 171 -416 242 -241 636 -232 888 21 42 41 92
101 111 133 l35 57 65 -8 c103 -11 297 -6 396 12 76 13 192 48 265 80 13 6 18
-5 28 -65 24 -144 100 -293 219 -428 l50 -57 -5 -105 c-12 -228 44 -444 161
-624 139 -213 345 -343 620 -390 180 -31 284 -16 386 54 143 99 204 304 138
468 -24 60 -24 61 -7 96 l19 35 52 -14 c181 -48 508 -62 687 -30 378 68 666
270 825 576 50 97 93 227 104 315 l7 60 15035 3 15036 2 17 -89 c94 -499 495
-834 1055 -881 168 -14 438 8 578 49 29 8 32 7 48 -25 15 -33 15 -38 -10 -112
-23 -66 -26 -88 -21 -156 10 -147 91 -268 224 -333 94 -46 251 -43 441 8 329
88 563 343 644 703 15 69 20 127 20 241 l0 150 44 51 c117 138 191 277 214
404 20 107 14 102 97 69 154 -61 388 -87 593 -66 l75 7 24 -46 c36 -68 146
-181 229 -235 155 -101 331 -130 516 -83 164 42 319 174 385 327 30 69 54 201
49 263 -5 62 -10 60 94 39 138 -30 431 -75 612 -95 99 -11 219 -27 266 -36 80
-14 289 -70 299 -80 2 -2 14 -44 27 -92 37 -147 121 -287 212 -352 59 -43 161
-80 219 -80 20 0 50 -9 67 -19 17 -11 74 -34 126 -52 95 -33 95 -33 305 -33
170 0 221 3 265 16 174 54 291 200 293 368 0 36 -5 139 -11 230 -11 176 -26
240 -83 352 -18 35 -29 73 -29 98 0 110 -74 227 -195 306 -93 60 -139 81 -250
109 l-79 20 -23 75 c-38 123 -61 246 -83 435 -28 243 -65 485 -95 630 -14 66
-25 123 -25 127 0 5 40 8 88 8 48 0 114 7 146 15 156 41 295 154 366 298 126
256 79 538 -124 743 -45 45 -107 96 -138 114 l-58 32 8 56 c12 98 6 321 -12
416 -14 74 -44 169 -81 259 -6 14 -2 17 26 17 130 1 314 88 473 225 l51 45
180 4 c120 2 201 9 243 20 314 80 547 285 651 571 16 45 39 139 51 209 24 144
19 216 -22 303 -33 71 -111 148 -186 185 -63 31 -73 33 -172 33 -88 0 -113 -4
-155 -23 -48 -22 -51 -22 -86 -6 l-37 16 14 51 c32 123 48 264 48 432 0 191
-16 298 -64 447 -126 391 -445 674 -833 739 l-77 13 0 9128 c0 7294 3 9129 13
9132 6 2 45 9 85 15 152 23 338 112 473 225 329 276 462 705 383 1243 -8 56
-21 123 -28 148 l-14 45 36 19 c34 18 37 18 76 0 239 -105 515 43 556 298 16
97 -19 304 -74 440 -150 367 -517 583 -956 560 l-104 -5 -55 50 c-134 123
-293 202 -448 223 -29 4 -53 8 -53 10 0 1 11 28 25 58 71 162 104 467 70 652
-5 28 -2 32 57 65 77 44 182 146 230 225 153 253 122 571 -75 769 -118 119
-256 175 -424 176 -40 0 -73 2 -73 4 0 2 9 48 20 102 34 165 67 378 95 614 30
254 43 324 85 461 l29 95 68 13 c81 15 144 41 239 98 129 78 201 183 214 313
4 39 15 79 28 100 48 80 74 188 85 350 19 304 15 336 -56 441 -46 69 -106 115
-195 151 -52 20 -76 23 -264 26 -236 4 -309 -8 -442 -72 -45 -22 -92 -36 -129
-39 -73 -7 -153 -44 -211 -97 -86 -79 -176 -253 -192 -371 l-6 -47 -87 -26
c-137 -42 -250 -63 -491 -91 -227 -26 -510 -71 -630 -99 -36 -9 -67 -16 -70
-16 -3 0 -5 42 -6 93 -1 163 -63 307 -181 417 -196 184 -507 212 -751 68 -74
-43 -188 -157 -236 -235 -37 -59 -40 -62 -70 -55 -17 4 -110 7 -206 7 -191 0
-266 -12 -414 -66 -84 -30 -96 -28 -96 16 0 40 -31 141 -65 212 -40 86 -96
169 -160 241 l-48 53 6 83 c21 297 -83 596 -273 786 -166 166 -412 264 -665
265 -93 0 -105 -2 -167 -33 -112 -55 -184 -142 -215 -259 -19 -74 -12 -183 16
-250 20 -46 21 -51 6 -86 -8 -20 -17 -37 -20 -37 -2 0 -34 7 -72 16 -193 45
-454 56 -641 28 -462 -68 -821 -371 -931 -785 -11 -41 -22 -95 -26 -122 l-6
-47 -15036 2 -15037 3 -13 80 c-71 419 -397 746 -850 851 -204 47 -533 42
-750 -13 -35 -8 -65 -14 -66 -12 -1 2 -10 20 -19 39 -15 33 -14 38 2 71 29 56
42 149 31 219 -26 158 -131 281 -280 324 -69 20 -150 19 -273 -4z m235 -75
c107 -28 180 -93 218 -195 30 -78 23 -177 -17 -251 l-29 -54 25 -50 c14 -27
33 -69 41 -91 l16 -42 84 24 c318 93 691 79 960 -35 231 -99 435 -299 529
-519 34 -80 70 -219 70 -272 0 -19 3 -45 6 -57 l6 -23 15112 0 15112 0 12 93
c52 412 350 731 781 837 253 62 508 50 849 -41 8 -3 22 19 37 58 13 34 31 73
40 87 16 24 15 28 -15 90 -94 191 24 417 235 449 22 4 81 0 130 -7 250 -38
388 -107 539 -266 61 -65 87 -104 126 -184 80 -165 93 -228 95 -448 l1 -188
40 -42 c108 -113 192 -255 219 -371 8 -34 17 -103 21 -153 l7 -92 49 29 c106
63 225 103 363 124 127 19 224 19 350 0 114 -17 97 -25 155 76 44 78 127 165
207 216 209 135 485 114 662 -50 51 -48 109 -143 131 -215 24 -78 26 -191 4
-274 -8 -33 -13 -62 -11 -65 3 -2 80 12 171 32 228 49 354 69 611 100 273 33
444 65 584 110 l108 35 6 60 c14 127 95 292 179 365 51 43 134 75 195 75 31 0
60 8 88 25 23 13 78 37 121 52 76 26 86 27 289 27 209 1 210 1 270 -27 144
-67 222 -205 193 -339 -6 -29 -10 -96 -9 -148 2 -114 -22 -220 -74 -323 -24
-47 -35 -82 -35 -112 0 -72 -36 -153 -94 -210 -85 -84 -244 -155 -375 -167
-33 -3 -35 -6 -58 -73 -45 -133 -82 -307 -103 -483 -41 -352 -80 -593 -135
-825 l-23 -99 21 7 c101 29 171 37 245 26 254 -37 433 -247 435 -506 1 -104
-18 -177 -70 -277 -46 -87 -162 -199 -259 -251 l-72 -37 10 -42 c17 -79 25
-226 17 -332 -14 -172 -44 -265 -157 -488 -2 -5 29 -8 70 -8 190 -1 368 -77
529 -228 l65 -61 95 9 c387 37 738 -142 889 -454 84 -172 121 -388 85 -497
-26 -77 -120 -171 -195 -193 -93 -28 -209 -14 -269 33 -24 18 -25 18 -106 -20
-46 -22 -88 -39 -94 -39 -14 0 -15 5 14 -97 54 -194 72 -493 40 -679 -71 -409
-316 -710 -674 -830 -75 -25 -226 -54 -283 -54 -5 0 -8 -4144 -8 -9209 l0
-9208 78 -6 c149 -12 309 -68 439 -154 78 -51 205 -174 259 -249 92 -128 170
-330 193 -498 26 -188 8 -464 -44 -651 -24 -89 -24 -105 -2 -105 7 0 45 -16
84 -34 l72 -35 62 32 c54 28 71 32 138 31 89 0 146 -22 211 -80 91 -82 116
-188 85 -361 -46 -258 -167 -451 -362 -577 -163 -105 -298 -140 -544 -141
l-176 0 -64 -60 c-158 -148 -316 -215 -504 -215 -47 0 -85 -3 -85 -6 0 -3 16
-34 35 -69 49 -87 92 -209 111 -313 19 -108 20 -323 1 -418 l-13 -71 75 -38
c53 -28 99 -62 151 -115 119 -119 173 -243 173 -400 1 -145 -46 -263 -145
-366 -129 -134 -304 -183 -487 -135 -67 18 -71 18 -66 2 39 -124 115 -556 145
-827 25 -227 58 -394 102 -528 l33 -100 85 -17 c253 -50 420 -199 420 -374 0
-28 10 -60 30 -96 54 -96 74 -180 78 -324 9 -265 8 -298 -12 -335 -37 -71 -85
-118 -153 -152 l-67 -33 -191 -3 c-227 -4 -278 4 -403 64 -51 25 -96 42 -101
40 -14 -9 -122 14 -162 34 -110 57 -239 287 -239 428 0 38 -13 45 -156 87
-132 38 -260 62 -464 85 -226 25 -562 80 -730 119 -69 16 -127 28 -129 26 -2
-2 4 -33 14 -69 14 -50 16 -87 12 -158 -8 -144 -48 -229 -155 -331 -160 -151
-398 -180 -612 -74 -90 44 -213 168 -264 265 -24 47 -43 72 -51 68 -89 -34
-403 -32 -545 4 -66 16 -208 76 -301 127 -3 2 -9 -39 -13 -92 -4 -53 -14 -121
-22 -153 -31 -122 -115 -261 -217 -361 l-45 -44 5 -146 c4 -113 2 -166 -11
-234 -63 -329 -257 -564 -546 -661 -83 -27 -233 -56 -296 -56 -187 0 -341 185
-304 364 6 31 22 76 35 100 l24 45 -34 75 c-19 41 -35 79 -35 85 0 21 -22 21
-85 2 -135 -42 -240 -55 -450 -55 -157 -1 -218 3 -285 17 -240 52 -423 149
-572 305 -156 164 -245 355 -264 567 l-7 75 -15113 0 -15113 0 -5 -45 c-3 -25
-9 -66 -12 -93 -8 -65 -50 -195 -87 -267 -121 -242 -331 -417 -604 -505 -244
-79 -567 -80 -851 -5 -109 29 -102 28 -102 15 0 -6 -16 -46 -36 -90 l-36 -79
28 -58 c25 -50 29 -69 29 -143 0 -72 -4 -92 -27 -135 -50 -95 -144 -162 -243
-172 -68 -7 -237 21 -334 56 -128 45 -208 96 -306 195 -73 73 -100 109 -137
181 -94 185 -130 373 -109 559 l10 88 -60 67 c-155 170 -228 340 -229 529 0
39 -2 72 -4 72 -3 0 -38 -18 -79 -40 -153 -83 -312 -120 -512 -120 -68 0 -158
7 -201 15 -43 8 -78 14 -78 12 -7 -24 -61 -115 -95 -160 -111 -148 -284 -237
-461 -237 -348 0 -593 320 -495 644 8 27 13 51 11 53 -2 2 -39 -5 -82 -16
-199 -50 -501 -100 -824 -136 -184 -20 -299 -44 -450 -91 l-119 -37 -7 -56
c-10 -86 -39 -169 -88 -252 -74 -127 -163 -187 -284 -193 -30 -2 -74 -16 -122
-39 -118 -57 -168 -66 -378 -68 -206 -1 -260 9 -345 68 -83 57 -135 174 -123
275 3 29 10 116 15 193 9 152 25 217 75 310 23 43 33 75 34 114 4 100 56 186
155 253 84 57 180 96 271 109 l76 11 34 107 c49 153 71 267 101 520 31 260 72
511 115 700 16 73 30 137 30 141 0 4 -30 -1 -67 -11 -320 -89 -633 159 -633
500 0 73 31 197 67 264 40 75 174 206 258 252 39 21 71 39 73 40 1 1 -5 46
-13 101 -19 126 -19 223 0 349 20 130 48 217 107 332 l48 93 -88 0 c-192 0
-351 70 -531 235 l-43 40 -182 1 c-152 1 -194 4 -258 22 -170 46 -272 101
-384 205 -139 129 -217 283 -254 504 -30 171 -10 251 82 340 97 94 229 115
351 55 61 -30 68 -32 89 -18 20 12 73 35 140 59 15 5 14 13 -7 86 -60 205 -79
527 -42 713 70 355 257 612 554 762 94 47 228 85 326 93 l77 6 0 9208 0 9208
-47 6 c-27 3 -68 8 -93 11 -73 9 -199 53 -287 99 -257 135 -434 365 -509 661
-61 243 -54 540 20 794 13 47 24 85 23 86 -1 0 -29 11 -62 23 -34 12 -73 30
-89 40 -27 18 -28 18 -83 -12 -179 -97 -397 2 -449 203 -14 56 -14 70 1 168
49 315 198 533 449 657 164 80 352 113 536 95 l93 -10 66 63 c36 35 88 78 114
96 119 81 277 131 416 131 l69 0 -52 103 c-60 117 -90 219 -107 357 -12 103
-7 263 12 349 13 62 19 54 -83 111 -198 111 -323 338 -305 556 28 323 334 537
641 448 27 -8 51 -12 53 -10 2 2 -12 75 -31 162 -46 205 -79 408 -111 681 -29
251 -52 367 -101 522 l-35 111 -37 0 c-111 0 -276 74 -368 165 -66 65 -94 126
-96 207 0 27 -11 65 -30 100 -56 110 -69 165 -80 318 -5 80 -12 175 -15 212
-4 58 -1 75 23 128 34 75 103 140 182 171 50 20 79 23 237 25 214 3 281 -8
401 -66 53 -26 97 -40 122 -40 103 0 199 -58 268 -162 58 -87 91 -170 105
-262 l11 -74 57 -21 c164 -58 285 -84 521 -111 321 -36 709 -103 869 -149 31
-10 33 -9 27 12 -42 148 -44 232 -6 342 29 85 60 133 128 198 136 129 336 177
513 123 144 -44 300 -174 369 -308 19 -38 40 -68 45 -68 6 0 51 7 100 15 225
37 458 2 661 -100 l104 -52 0 68 c0 195 76 372 226 529 l63 66 -10 98 c-18
180 15 367 96 531 120 244 329 393 623 445 134 23 136 23 205 5z"/>
<path d="M6790 35841 c-227 -73 -350 -260 -350 -530 0 -150 19 -223 95 -376
76 -154 94 -216 102 -349 5 -80 8 -95 16 -75 6 13 10 65 10 114 0 96 -22 201
-67 310 -72 178 -77 384 -11 503 l14 27 -7 -35 c-16 -77 -7 -282 16 -387 22
-99 88 -311 101 -325 3 -4 7 18 8 47 3 108 60 231 166 354 84 97 109 188 82
293 -18 73 -44 119 -114 207 -76 95 -79 130 -15 201 40 44 34 47 -46 21z"/>
<path d="M41261 35834 c37 -41 49 -67 49 -111 0 -31 -10 -50 -57 -108 -153
-190 -161 -343 -25 -503 104 -123 162 -248 162 -350 0 -65 12 -46 54 87 82
254 103 468 61 618 -3 10 4 0 14 -22 61 -123 65 -300 11 -452 -62 -173 -81
-247 -86 -338 -4 -64 -1 -103 9 -135 l15 -45 1 91 c1 125 29 226 100 365 71
138 89 201 98 329 20 307 -136 540 -397 595 l-35 7 26 -28z"/>
<path d="M7675 35260 c-102 -12 -236 -44 -317 -76 -320 -130 -612 -486 -776
-948 l-39 -109 -5 104 c-7 123 -32 211 -84 289 l-37 55 38 -35 c49 -46 85
-118 105 -210 l17 -75 8 59 c25 190 -38 342 -172 418 -59 34 -93 70 -93 102 0
32 -72 -53 -114 -136 -49 -95 -52 -144 -26 -364 51 -435 13 -828 -110 -1140
-121 -307 -357 -597 -646 -793 -34 -22 -64 -41 -68 -41 -3 0 14 26 37 58 200
264 339 552 391 807 14 67 17 92 31 230 8 73 -11 255 -35 341 -26 96 -5 66 29
-39 68 -214 61 -445 -20 -690 -42 -126 -134 -313 -213 -432 -68 -104 -46 -85
53 45 180 235 283 479 312 738 20 179 -22 398 -103 542 -50 88 -179 210 -268
253 -113 55 -185 71 -330 71 -207 0 -350 -51 -480 -171 -58 -54 -130 -146
-130 -166 0 -4 15 2 33 13 88 54 160 0 212 -159 25 -76 72 -124 179 -178 189
-98 258 -205 296 -466 69 -468 -78 -813 -456 -1068 -80 -54 -243 -136 -335
-168 -74 -27 -48 -25 98 5 453 93 878 336 1175 672 107 120 172 212 271 385
219 379 430 603 694 735 259 131 556 118 783 -33 208 -138 266 -356 149 -561
-40 -71 -104 -132 -167 -161 -42 -20 -68 -25 -130 -24 -75 1 -162 20 -192 42
-12 9 -11 10 5 4 11 -4 57 -9 101 -12 200 -13 336 89 389 293 26 99 2 202 -65
277 -46 53 -55 46 -17 -15 29 -47 32 -58 32 -134 0 -92 -13 -119 -76 -162 -35
-24 -79 -26 -176 -6 -69 14 -103 -2 -184 -87 -67 -71 -79 -79 -112 -79 -58 0
-80 29 -75 99 2 31 14 76 26 100 12 25 20 46 18 48 -5 6 -82 -99 -107 -147
-20 -38 -24 -59 -24 -140 0 -113 19 -160 97 -245 199 -218 569 -231 777 -26
246 241 194 706 -107 956 -81 67 -238 147 -347 176 -97 27 -335 32 -425 11
-89 -22 -181 -53 -232 -79 -27 -13 -48 -21 -48 -17 0 13 66 100 121 159 100
106 206 166 334 186 32 6 77 7 99 3 l40 -6 -74 -19 c-173 -44 -348 -141 -410
-229 l-22 -31 64 35 c34 19 106 48 158 65 52 16 156 48 230 71 303 95 403 188
439 410 16 101 -21 232 -80 286 -18 16 -19 16 -19 -4 0 -11 -11 -34 -25 -51
-36 -42 -112 -58 -208 -44 -177 26 -289 -6 -385 -112 -87 -94 -122 -171 -217
-475 -33 -105 -85 -200 -143 -262 -46 -50 -112 -95 -112 -77 0 26 44 179 86
300 177 509 439 865 749 1018 127 63 193 81 330 88 178 8 333 -37 419 -123 54
-55 97 -149 102 -227 l4 -62 -18 50 c-74 197 -178 293 -328 303 -42 3 -79 0
-90 -6 -16 -10 -14 -11 17 -12 71 0 139 -29 189 -79 71 -71 85 -116 136 -441
33 -210 77 -293 184 -339 l49 -21 15739 0 c14574 0 15742 1 15786 16 66 23
128 85 154 155 11 31 30 116 42 190 36 226 50 292 76 349 44 96 117 154 209
167 25 3 48 10 51 14 9 15 -121 10 -170 -7 -93 -32 -200 -159 -237 -281 -6
-23 -15 -40 -19 -38 -14 9 11 121 40 182 35 71 77 111 158 151 95 48 145 57
297 57 125 -1 149 -4 225 -29 243 -80 450 -257 634 -546 69 -108 177 -334 231
-485 44 -121 108 -345 101 -352 -1 -2 -24 11 -51 29 -98 65 -170 197 -245 448
-101 338 -262 490 -492 463 -202 -23 -298 5 -298 89 0 21 -1 21 -29 -6 -66
-64 -95 -210 -65 -326 48 -184 153 -274 417 -356 314 -98 369 -118 412 -145
26 -17 49 -28 52 -26 10 11 -144 138 -207 171 -78 41 -183 80 -251 91 l-44 8
34 9 c51 14 165 -8 246 -46 93 -44 163 -101 235 -192 92 -115 92 -118 13 -82
-37 17 -111 42 -163 56 -82 22 -115 25 -245 25 -184 0 -260 -18 -420 -97 -266
-131 -425 -378 -425 -660 0 -247 145 -453 367 -521 293 -91 642 99 669 363 11
97 -38 223 -111 292 l-26 24 21 -47 c12 -26 24 -69 27 -96 5 -44 3 -52 -20
-75 -18 -18 -37 -26 -62 -26 -30 0 -43 8 -78 46 -114 126 -136 137 -237 116
-80 -17 -110 -15 -154 11 -41 23 -71 70 -80 123 -9 48 11 134 40 177 36 55 24
56 -24 2 -69 -78 -87 -165 -57 -278 45 -172 160 -275 319 -285 40 -2 96 1 126
7 74 16 73 7 -1 -18 -90 -30 -207 -29 -274 3 -67 31 -106 65 -151 133 -82 123
-97 280 -40 398 61 125 212 239 376 284 458 128 921 -165 1280 -809 301 -539
826 -920 1442 -1045 159 -32 172 -31 74 5 -246 92 -465 245 -597 419 -65 86
-133 225 -159 326 -56 216 -27 572 60 745 43 86 98 136 219 200 133 71 150 91
206 243 25 69 75 117 123 117 20 0 52 -9 70 -20 17 -11 32 -17 32 -14 0 18
-96 138 -142 178 -143 125 -365 185 -578 156 -286 -39 -478 -210 -565 -505
-34 -113 -43 -303 -20 -435 44 -252 191 -545 374 -750 34 -38 30 -30 -25 55
-120 184 -210 395 -251 585 -25 120 -25 347 1 450 20 78 62 184 50 125 -35
-168 -40 -381 -14 -520 53 -282 182 -569 372 -827 76 -102 77 -105 32 -78
-298 180 -577 528 -699 870 -95 267 -138 701 -98 995 9 66 17 181 17 255 1
130 0 137 -28 192 -16 32 -51 81 -77 110 -42 46 -48 50 -49 30 0 -39 -18 -61
-75 -93 -64 -36 -130 -105 -155 -162 -28 -63 -42 -161 -34 -233 3 -36 9 -66
13 -68 4 -3 12 25 19 61 17 90 70 191 113 213 15 8 13 2 -10 -32 -57 -86 -92
-228 -86 -353 2 -33 1 -51 -2 -40 -17 66 -94 257 -145 360 -167 336 -374 559
-625 677 -155 73 -356 109 -559 102 -304 -11 -543 -143 -658 -364 -61 -115
-71 -167 -69 -335 1 -82 4 -174 6 -202 3 -29 2 -55 -3 -58 -5 -3 -27213 -8
-30908 -5 -9 0 -11 42 -6 198 7 228 0 274 -68 404 -91 176 -280 306 -506 348
-82 15 -254 20 -347 10z"/>
<path d="M1443 34695 c2 -146 3 -152 32 -205 34 -63 87 -103 126 -98 25 4 27
2 26 -31 0 -20 3 -50 7 -68 7 -27 4 -35 -18 -56 l-27 -25 47 -16 c86 -29 159
-14 220 45 l31 30 56 -118 c128 -269 204 -535 232 -818 27 -265 82 -601 131
-799 30 -123 31 -225 4 -332 -25 -98 -69 -172 -140 -235 -120 -108 -204 -117
-226 -24 -12 54 -45 97 -90 117 -37 16 -49 17 -90 7 -120 -31 -169 -175 -99
-295 49 -84 156 -150 257 -161 63 -6 158 22 223 67 139 95 240 286 247 462 2
32 5 54 9 50 3 -4 19 -43 35 -87 44 -124 155 -340 226 -440 287 -406 717 -551
1097 -369 95 46 231 177 274 265 98 197 64 408 -88 565 -203 207 -568 137
-626 -120 -31 -142 80 -279 227 -279 134 0 227 115 184 227 -12 33 -3 37 43
21 86 -29 141 -119 141 -231 0 -60 -4 -81 -32 -136 -84 -171 -302 -291 -500
-274 -361 30 -722 433 -822 916 -6 30 -13 66 -16 80 -5 21 3 16 53 -31 221
-211 455 -232 639 -57 104 98 154 210 154 344 0 95 -27 167 -87 234 -43 48
-133 110 -160 110 -8 0 -7 -14 3 -52 17 -65 18 -150 2 -166 -7 -7 -38 -12 -70
-12 -104 0 -134 -22 -157 -115 -32 -124 -174 -143 -292 -38 -45 41 -51 43 -35
18 67 -107 169 -194 265 -226 50 -17 80 -20 140 -17 75 5 75 5 41 -10 -20 -9
-67 -16 -110 -16 -66 -1 -84 3 -142 32 -78 38 -149 110 -207 211 -104 178
-206 534 -227 796 l-6 70 40 -65 c50 -82 109 -130 162 -130 53 0 68 8 87 44
36 68 9 226 -63 369 -26 52 -113 186 -155 241 -16 21 -1 12 58 -31 195 -145
438 -230 538 -189 21 9 44 24 51 34 16 20 18 70 5 104 -13 33 -77 95 -136 129
-60 35 -51 36 103 14 240 -34 510 -112 662 -191 222 -115 321 -262 290 -428
-18 -95 -25 -93 -25 7 -1 73 -5 102 -23 142 -33 72 -94 147 -159 197 -83 63
-93 67 -51 20 60 -66 81 -117 76 -179 -6 -70 -40 -108 -118 -129 -83 -24 -94
-39 -99 -134 -2 -66 -7 -83 -23 -94 -22 -16 -96 -12 -167 10 -25 7 -46 12 -47
11 -1 -1 10 -26 24 -56 87 -176 281 -247 483 -176 70 25 120 59 182 124 180
189 158 423 -61 652 l-44 47 48 -9 c413 -76 759 -311 905 -614 40 -83 69 -190
69 -261 0 -60 -35 -187 -71 -254 -69 -129 -210 -231 -333 -238 -53 -3 -69 1
-126 30 -69 36 -114 84 -125 135 l-6 32 31 -10 c45 -16 122 -6 160 21 44 31
70 91 70 163 0 135 -92 228 -228 228 -96 1 -168 -39 -226 -124 -91 -135 -86
-324 12 -452 154 -203 436 -254 647 -117 125 81 232 227 280 382 26 84 31 258
11 355 -36 175 -114 313 -261 460 -160 161 -313 259 -568 361 l-129 51 59 7
c156 19 273 70 374 164 94 87 141 179 141 280 1 120 -70 242 -168 292 -129 64
-279 -2 -288 -127 -5 -77 35 -131 117 -154 54 -16 77 -36 77 -67 0 -78 -115
-215 -223 -266 -144 -68 -253 -73 -482 -22 -219 48 -410 80 -670 111 -257 30
-307 38 -436 70 -148 38 -291 90 -441 162 l-137 66 34 38 c53 59 63 123 34
217 -12 38 -13 38 -39 12 -20 -20 -59 -25 -95 -11 -11 5 -31 4 -44 -1 -21 -7
-23 -6 -18 13 14 51 -35 113 -118 150 -44 20 -67 23 -192 23 l-143 1 3 -150z
m855 -648 c169 -129 340 -237 452 -285 45 -18 48 -22 20 -17 -54 10 -242 105
-373 189 -65 41 -114 70 -110 63 4 -7 35 -55 68 -107 83 -127 139 -231 170
-313 35 -93 31 -107 -6 -23 -82 184 -246 415 -509 717 -52 60 -49 58 68 -43
68 -59 167 -140 220 -181z"/>
<path d="M46395 34843 c-106 -20 -197 -104 -181 -169 6 -21 4 -23 -16 -15 -13
5 -32 5 -43 0 -37 -14 -78 -9 -102 12 l-22 22 -12 -29 c-19 -47 -23 -121 -9
-156 7 -18 28 -49 47 -69 l34 -36 -128 -60 c-304 -144 -480 -191 -923 -243
-229 -27 -499 -72 -656 -110 -258 -61 -446 -25 -584 113 -56 57 -112 158 -103
185 9 27 35 52 51 52 32 0 102 43 122 74 45 74 12 178 -70 221 -115 60 -261
-8 -333 -154 -28 -57 -32 -76 -32 -141 0 -87 26 -152 93 -236 83 -105 270
-198 415 -208 32 -2 60 -5 62 -8 2 -2 -33 -17 -78 -33 -206 -73 -473 -231
-605 -358 -63 -61 -158 -189 -197 -268 -61 -120 -87 -228 -88 -359 0 -124 9
-177 50 -280 74 -186 220 -324 397 -375 45 -13 82 -16 149 -12 79 4 98 9 173
46 136 68 216 161 250 291 54 212 -91 434 -283 432 -164 -1 -272 -162 -213
-317 32 -83 131 -127 214 -95 24 9 26 7 26 -19 0 -41 -49 -102 -111 -136 -47
-26 -64 -30 -129 -29 -99 0 -172 34 -255 118 -128 131 -184 328 -140 501 35
140 160 328 288 436 178 150 407 258 639 302 l78 15 -70 -75 c-130 -139 -183
-299 -146 -436 21 -76 80 -172 139 -223 60 -52 170 -102 249 -113 81 -11 179
6 242 43 70 41 139 125 160 194 7 20 5 21 -18 12 -15 -5 -53 -14 -86 -19 -73
-12 -119 0 -121 32 -1 12 -3 45 -4 72 -4 90 -22 113 -103 128 -49 10 -88 41
-106 88 -27 67 -5 141 62 212 45 47 34 47 -29 1 -68 -49 -133 -125 -166 -192
-25 -51 -28 -67 -28 -160 0 -97 -1 -101 -14 -70 -7 18 -16 61 -18 94 -21 244
235 433 739 549 110 26 297 55 348 54 22 0 20 -2 -15 -21 -123 -63 -181 -151
-150 -225 17 -39 42 -53 106 -58 127 -9 329 77 529 226 l45 34 -37 -45 c-186
-229 -279 -530 -191 -617 21 -22 31 -25 74 -21 59 6 99 39 161 133 l40 60 -7
-60 c-30 -276 -122 -612 -211 -775 -126 -228 -309 -327 -477 -257 -24 10 -16
12 65 12 86 0 99 3 163 34 72 36 173 128 209 192 l20 34 -37 -32 c-81 -71
-169 -93 -234 -59 -38 19 -56 47 -77 119 -20 70 -42 83 -144 86 -37 1 -71 6
-75 10 -17 17 -18 88 -2 150 9 35 14 65 12 67 -9 9 -63 -18 -113 -56 -62 -47
-108 -116 -129 -195 -19 -74 -19 -115 0 -189 47 -180 183 -319 350 -356 133
-30 295 34 443 174 50 48 52 42 23 -79 -90 -372 -296 -665 -574 -815 -84 -45
-206 -80 -281 -80 -185 1 -387 121 -462 275 -38 79 -41 196 -7 261 30 57 96
114 132 114 l29 0 -5 -63 c-8 -98 34 -159 124 -182 122 -32 248 33 282 144 81
273 -278 477 -542 308 -141 -91 -234 -278 -220 -441 7 -78 46 -179 97 -251
195 -272 580 -355 914 -195 107 51 159 88 255 179 156 149 289 363 387 624
l37 99 7 -75 c22 -244 174 -449 371 -502 57 -16 76 -17 122 -7 112 23 197 83
238 167 44 89 33 184 -28 242 -89 86 -216 50 -252 -70 -8 -27 -20 -56 -26 -63
-32 -39 -131 3 -223 94 -82 81 -127 191 -142 340 -5 55 0 91 25 197 52 225 93
466 121 720 44 393 104 615 245 911 l55 116 46 -41 c63 -55 132 -65 218 -32
l29 12 -22 22 c-23 25 -26 52 -11 91 6 17 6 35 0 51 -9 23 -8 24 20 19 53 -11
113 43 150 135 9 22 14 80 14 175 l1 141 -125 1 c-69 0 -134 -1 -145 -3z
m-318 -595 c-194 -215 -384 -479 -468 -652 -49 -99 -61 -113 -35 -39 26 75
105 223 181 338 41 64 70 113 63 109 -7 -4 -45 -29 -83 -55 -105 -69 -261
-155 -338 -184 -85 -31 -111 -32 -37 0 171 73 418 245 670 464 63 55 117 101
118 101 2 0 -30 -37 -71 -82z"/>
<path d="M8040 33893 c0 -2 28 -40 63 -86 107 -140 165 -259 208 -424 32 -123
33 -329 1 -456 -69 -276 -260 -499 -512 -596 -147 -57 -326 -74 -480 -47 -186
33 -331 109 -466 241 -77 77 -98 104 -137 185 -65 132 -78 190 -78 343 1 70
-1 127 -3 127 -16 0 -195 -268 -271 -405 -21 -38 -56 -97 -78 -129 l-40 -60
22 -35 c37 -60 88 -173 100 -223 67 -279 0 -614 -170 -840 -98 -131 -266 -271
-417 -347 -131 -66 -348 -121 -479 -121 l-43 0 0 -64 c0 -132 -46 -308 -117
-451 -103 -206 -273 -390 -455 -489 -291 -161 -694 -167 -925 -16 l-62 41 -58
-39 c-32 -21 -89 -56 -128 -77 -108 -60 -221 -132 -320 -204 l-90 -66 155 -6
c121 -5 168 -11 213 -27 164 -60 297 -164 392 -307 96 -143 142 -284 152 -455
22 -423 -242 -780 -654 -882 -111 -27 -320 -30 -429 -5 -168 38 -307 104 -450
213 -46 35 -84 61 -84 58 0 -4 17 -57 37 -118 l38 -111 0 -9875 0 -9875 -37
-110 c-21 -60 -36 -110 -35 -112 2 -1 45 30 97 68 215 160 428 227 687 216
150 -6 261 -34 384 -98 387 -201 553 -685 379 -1102 -94 -227 -286 -406 -505
-474 -47 -14 -92 -18 -201 -17 l-141 0 46 -36 c89 -70 207 -148 341 -225 74
-43 149 -88 167 -101 17 -13 36 -24 42 -24 5 0 30 14 55 31 190 127 534 150
795 52 160 -60 308 -164 422 -295 176 -204 270 -426 288 -683 l6 -90 100 -7
c386 -27 760 -275 925 -613 105 -215 133 -478 75 -699 -18 -70 -65 -169 -98
-210 l-24 -29 54 -86 c30 -47 89 -144 131 -216 43 -71 108 -170 145 -219 l67
-89 -1 129 c-1 142 12 213 61 320 139 308 507 503 869 463 375 -42 643 -276
743 -650 33 -126 31 -336 -5 -474 -35 -130 -107 -277 -195 -395 -38 -52 -69
-96 -67 -98 1 -1 26 7 55 18 28 11 84 29 123 40 72 20 147 20 15827 20 14218
0 15761 -1 15815 -15 33 -9 91 -27 128 -40 38 -14 70 -25 73 -25 2 0 -28 41
-66 92 -167 220 -238 435 -227 693 6 157 35 266 104 398 51 95 152 214 238
277 254 188 626 216 918 70 162 -82 291 -207 363 -355 59 -122 77 -209 72
-352 -2 -62 -3 -113 -3 -113 4 0 115 149 152 205 22 33 69 110 103 170 35 61
81 136 102 167 21 31 38 60 38 63 0 4 -11 21 -24 38 -38 52 -76 133 -98 215
-17 63 -21 106 -21 237 0 140 3 172 25 255 47 176 124 313 250 445 205 216
473 346 749 362 l96 6 12 112 c20 203 78 369 185 529 69 103 185 229 274 295
234 175 568 240 856 165 61 -16 173 -69 215 -102 23 -19 24 -19 70 12 26 18
107 67 181 109 120 69 243 151 340 227 l32 25 -143 1 c-129 0 -152 3 -224 27
-112 37 -197 90 -285 177 -87 87 -141 164 -187 270 -58 135 -68 188 -68 365 1
189 12 239 87 395 45 94 61 115 152 206 93 93 111 106 216 157 148 71 214 88
381 94 145 6 241 -7 364 -49 101 -35 230 -104 320 -174 48 -36 88 -64 90 -62
2 2 -10 41 -26 87 -16 46 -36 122 -44 168 -13 75 -15 1257 -15 9839 0 6875 3
9776 11 9831 6 43 26 123 45 177 19 55 33 100 31 102 -1 1 -45 -30 -97 -68
-228 -170 -508 -251 -751 -219 -130 17 -194 36 -304 90 -229 113 -376 296
-441 548 -23 89 -25 111 -21 243 6 174 19 225 93 379 51 104 65 124 152 211
103 103 175 150 292 191 52 18 95 24 217 28 l151 6 -94 70 c-51 39 -144 100
-206 136 -62 37 -155 92 -206 123 l-92 57 -33 -24 c-51 -39 -133 -77 -215 -99
-117 -32 -363 -32 -487 1 -180 46 -345 141 -475 273 -210 211 -317 446 -345
754 l-7 70 -113 12 c-148 16 -265 50 -400 117 -266 132 -469 352 -557 605 -93
268 -69 587 58 778 l35 54 -49 76 c-27 43 -77 126 -111 185 -34 59 -93 151
-131 205 -119 164 -107 161 -102 25 4 -98 1 -134 -17 -203 -56 -221 -199 -393
-416 -501 -152 -75 -230 -93 -410 -93 -134 1 -159 4 -240 28 -295 90 -505 305
-587 602 -18 66 -22 106 -22 244 -1 142 2 177 22 250 43 158 109 283 238 453
l36 47 -82 -30 c-46 -17 -103 -35 -127 -40 -28 -7 -5546 -10 -15819 -10
l-15776 0 -114 38 c-63 21 -114 37 -114 35z m16008 -163 c8667 0 15768 3
15781 7 l24 6 -26 -44 c-105 -178 -160 -441 -137 -650 46 -413 283 -707 667
-826 82 -25 100 -27 273 -27 173 0 191 2 274 28 232 70 419 209 533 394 45 73
89 186 108 276 3 16 10 25 14 20 5 -5 44 -70 86 -144 43 -74 85 -146 94 -159
17 -22 16 -26 -24 -105 -65 -131 -80 -209 -79 -421 1 -161 3 -190 27 -280 58
-218 187 -418 369 -570 194 -163 402 -256 639 -286 52 -7 89 -16 89 -23 0 -6
7 -54 14 -106 66 -436 388 -830 786 -959 103 -34 223 -51 359 -51 167 0 287
25 403 83 l88 43 64 -41 c36 -22 111 -67 168 -99 l103 -59 -77 -18 c-311 -73
-549 -325 -639 -676 -32 -123 -32 -329 -1 -457 86 -349 326 -591 682 -687 74
-21 107 -23 260 -23 157 0 185 3 273 27 54 14 144 48 200 75 l102 48 0 -9883
c0 -5436 -1 -9883 -2 -9883 -1 0 -37 17 -80 39 -86 43 -204 83 -303 102 -91
18 -318 16 -405 -4 -345 -77 -600 -301 -705 -617 -125 -379 6 -831 310 -1065
105 -81 271 -155 347 -155 14 0 23 -5 21 -12 -2 -6 -67 -48 -144 -93 -76 -45
-148 -87 -160 -94 -18 -12 -26 -10 -60 11 -120 74 -246 102 -459 102 -149 -1
-182 -4 -267 -27 -196 -52 -342 -133 -487 -272 -222 -213 -354 -478 -386 -777
l-6 -58 -45 0 c-56 0 -178 -24 -264 -52 -181 -59 -349 -165 -496 -312 -212
-213 -309 -433 -321 -727 -9 -209 25 -384 97 -500 l28 -47 -22 -33 c-13 -19
-54 -88 -91 -154 -98 -175 -89 -168 -110 -83 -74 311 -331 554 -675 641 -122
30 -339 30 -464 -1 -164 -41 -327 -132 -438 -245 -299 -304 -360 -808 -145
-1211 l32 -61 -15791 0 -15790 0 48 102 c69 144 99 266 105 433 4 99 1 159
-11 226 -62 356 -299 632 -632 737 -519 164 -1087 -129 -1203 -621 l-18 -76
-43 75 c-24 40 -69 118 -101 172 l-58 98 39 76 c128 250 114 643 -33 928 -180
347 -580 610 -972 637 -39 3 -40 4 -43 43 -15 215 -105 445 -249 636 -122 163
-261 277 -435 359 -272 127 -641 131 -883 10 l-78 -39 -81 48 c-45 27 -118 70
-163 97 -79 46 -94 64 -51 64 36 0 131 31 203 67 167 83 306 225 396 408 78
159 93 228 93 435 1 153 -2 185 -22 253 -86 297 -276 512 -550 623 -276 111
-630 89 -901 -57 -68 -36 -73 -38 -65 -17 12 30 17 19588 5 19682 -4 39 -8 72
-7 73 1 2 31 -13 67 -31 256 -135 589 -163 854 -73 298 102 513 330 595 632
31 113 39 331 16 444 -52 258 -192 474 -392 607 -83 55 -203 106 -283 119 -55
9 -53 12 119 110 74 43 143 83 153 89 14 9 28 5 67 -17 131 -74 282 -102 499
-94 169 6 279 32 417 96 224 105 433 315 557 561 61 122 117 323 117 423 l0
44 93 11 c362 45 710 272 900 587 172 288 193 730 47 994 l-30 54 49 81 c26
44 60 104 76 131 16 28 39 68 53 89 l25 40 18 -71 c25 -100 54 -166 115 -258
121 -185 305 -312 554 -381 51 -15 101 -19 235 -19 147 0 182 3 254 23 308 84
535 297 638 597 90 264 64 589 -65 840 -48 92 -47 89 -27 82 9 -4 7107 -7
15773 -7z"/>
<path d="M5755 32416 c-42 -18 -94 -73 -116 -121 -15 -33 -19 -66 -19 -192 0
-187 -14 -234 -96 -322 -112 -122 -215 -164 -394 -163 -166 0 -345 41 -533
122 -49 21 -86 33 -84 27 105 -255 146 -402 154 -562 3 -64 1 -135 -6 -170
-26 -141 -127 -277 -249 -337 -67 -33 -67 -33 -207 -31 -177 3 -225 -9 -288
-72 -35 -35 -48 -57 -56 -96 -39 -181 97 -284 364 -275 178 7 319 67 448 194
134 130 209 264 243 432 31 154 6 369 -65 548 -12 29 -21 54 -21 56 0 2 34
-10 76 -26 243 -94 507 -96 701 -4 108 52 180 105 268 198 126 133 175 249
183 432 7 170 -18 264 -85 329 -49 46 -152 62 -218 33z m-817 -903 c87 -24
115 -27 272 -27 184 0 266 13 401 63 74 28 39 0 -56 -44 -184 -86 -416 -97
-674 -32 -50 13 -91 21 -91 18 0 -3 7 -28 15 -56 46 -149 60 -411 29 -547 -15
-67 -99 -267 -108 -257 -2 2 6 36 19 74 90 269 79 561 -31 809 -19 45 -38 87
-41 93 -3 7 34 -6 81 -28 48 -22 131 -52 184 -66z"/>
<path d="M42171 32408 c-86 -42 -125 -143 -125 -318 0 -193 62 -348 192 -479
261 -262 569 -322 958 -184 l81 29 -33 -91 c-131 -369 -73 -681 176 -935 72
-74 99 -94 180 -133 118 -58 204 -76 335 -72 213 7 315 79 315 221 0 66 -13
100 -53 142 -66 69 -93 77 -277 77 -155 1 -168 3 -220 26 -63 29 -140 100
-188 174 -52 79 -73 162 -73 290 0 157 33 308 112 509 22 54 38 101 36 103 -2
2 -37 -10 -76 -27 -319 -131 -609 -160 -776 -78 -63 32 -142 96 -180 148 -59
80 -67 116 -69 295 -1 144 -3 164 -23 200 -26 49 -78 100 -116 114 -47 18
-128 13 -176 -11z m1228 -878 c-22 -49 -52 -133 -66 -187 -23 -85 -26 -119
-27 -258 0 -167 13 -261 55 -382 29 -86 14 -76 -31 19 -69 147 -92 305 -71
489 11 90 39 225 57 273 5 13 -3 12 -61 -4 -193 -55 -431 -63 -583 -20 -70 20
-218 87 -210 95 2 2 39 -7 81 -20 279 -89 603 -66 842 58 28 14 51 26 52 27 0
0 -17 -40 -38 -90z"/>
<path d="M4367 31726 c-23 -73 -107 -241 -161 -323 -116 -177 -263 -310 -431
-389 -160 -76 -315 -100 -528 -84 -174 13 -269 34 -364 80 -100 49 -150 102
-217 229 -57 106 -102 152 -177 176 -159 52 -213 124 -159 213 11 17 17 32 13
32 -20 0 -112 -72 -166 -130 -120 -129 -171 -274 -171 -480 1 -218 52 -351
187 -485 94 -94 156 -132 282 -174 345 -114 763 -15 1135 270 131 100 148 121
45 53 -394 -259 -814 -343 -1136 -228 -95 34 -109 47 -26 24 385 -107 897 31
1345 362 50 37 92 66 92 63 0 -31 -159 -232 -266 -337 -114 -111 -159 -148
-269 -221 -225 -148 -498 -244 -780 -272 -38 -4 -79 -9 -90 -11 -56 -12 -392
-4 -520 12 -77 10 -183 18 -236 19 -90 0 -99 -2 -170 -38 -88 -44 -177 -117
-143 -117 30 0 71 -35 94 -81 45 -87 122 -148 222 -175 54 -14 194 -17 238 -5
19 5 12 9 -38 18 -85 16 -173 58 -213 101 -34 36 -34 36 -5 18 75 -47 98 -57
171 -76 44 -11 114 -20 159 -21 69 0 77 -2 51 -11 -347 -120 -589 -260 -781
-452 -175 -176 -269 -344 -303 -544 -20 -114 -22 -139 -26 -237 -11 -356 125
-625 383 -754 111 -56 163 -64 387 -60 l200 4 3 -9553 c2 -9092 1 -9552 -15
-9553 -10 -1 -54 0 -98 2 -44 2 -136 4 -205 3 -112 0 -133 -3 -200 -28 -330
-125 -491 -445 -448 -891 35 -364 211 -640 553 -867 114 -76 338 -186 475
-233 57 -20 105 -37 107 -39 2 -2 -25 -2 -59 0 -119 4 -249 -28 -330 -82 -56
-38 -64 -29 -13 14 51 41 115 71 184 85 33 7 62 15 66 18 12 12 -151 19 -204
9 -119 -23 -201 -81 -261 -185 -33 -58 -54 -75 -92 -75 -20 -1 -18 -6 25 -45
27 -24 78 -59 115 -77 85 -42 178 -48 359 -22 173 25 526 25 702 0 315 -44
580 -149 816 -323 153 -113 356 -331 437 -469 l22 -39 -39 30 c-273 206 -567
348 -841 406 -184 39 -448 32 -609 -16 -11 -3 0 4 25 16 106 49 184 63 365 63
141 0 185 -4 258 -22 185 -46 403 -144 565 -253 39 -27 72 -47 72 -44 0 9
-152 127 -230 177 -169 110 -366 192 -536 222 -105 18 -280 18 -378 0 -206
-39 -376 -146 -476 -298 -124 -192 -143 -489 -45 -705 53 -115 164 -239 258
-288 l30 -15 -22 35 c-57 92 1 168 168 222 72 23 116 70 175 185 78 151 162
217 330 260 183 47 459 52 611 11 101 -27 242 -95 322 -155 177 -134 342 -370
427 -611 23 -65 25 -67 20 -25 -12 91 -57 275 -95 386 -109 316 -275 581 -513
820 -163 162 -258 233 -476 357 -434 246 -701 533 -792 854 -32 111 -32 295 0
408 48 167 152 310 274 376 61 33 67 34 173 34 104 0 114 -2 176 -32 84 -42
157 -107 189 -169 36 -70 40 -188 10 -285 -24 -82 -36 -87 -19 -9 16 74 7 184
-20 245 -31 71 -100 137 -185 177 -64 30 -80 33 -161 33 -102 0 -144 -16 -205
-80 l-35 -36 60 31 c107 54 208 49 271 -14 41 -41 50 -89 34 -176 -18 -96 -8
-133 47 -183 110 -100 113 -103 113 -141 0 -44 -36 -86 -73 -86 -30 0 -128 29
-145 42 -7 6 -15 8 -18 6 -9 -10 81 -77 142 -105 129 -60 286 -24 397 90 157
161 200 425 102 632 -43 90 -133 179 -229 225 -342 164 -773 -17 -941 -395
-99 -224 -109 -478 -29 -714 15 -42 35 -93 46 -115 l20 -39 -34 24 c-141 98
-226 189 -278 301 -33 71 -53 186 -42 238 l8 35 13 -60 c20 -90 67 -205 112
-276 40 -63 126 -159 141 -159 4 0 -5 21 -21 48 -32 52 -68 153 -131 367 -51
175 -95 267 -162 340 -59 65 -119 99 -215 121 -122 29 -254 1 -319 -67 l-28
-29 28 0 c36 0 72 -38 86 -91 10 -34 10 -70 0 -160 -10 -101 -10 -125 4 -180
41 -159 179 -271 434 -350 186 -58 247 -81 307 -114 78 -43 144 -102 173 -154
l24 -42 -29 7 c-100 24 -283 82 -391 124 -513 200 -844 484 -960 823 -77 224
-46 485 73 624 35 41 129 97 180 107 77 14 117 17 110 7 -3 -6 -13 -11 -22
-11 -9 0 -53 -18 -97 -39 -143 -69 -217 -166 -224 -292 -5 -87 12 -126 21 -46
6 65 33 121 79 166 64 63 123 83 366 121 103 16 209 36 235 44 105 32 164 95
192 204 13 51 15 1246 13 9862 l-3 9805 -24 52 c-49 110 -129 154 -341 188
-248 39 -280 46 -332 66 -104 39 -170 120 -185 224 -10 77 -26 52 -21 -33 9
-156 103 -259 303 -334 l50 -18 -61 4 c-228 15 -366 221 -351 520 7 138 25
204 88 331 126 255 397 484 769 651 180 80 531 197 547 181 10 -10 -27 -64
-74 -108 -63 -59 -157 -111 -263 -144 -304 -95 -381 -130 -475 -217 -63 -57
-111 -146 -120 -223 -3 -27 -1 -95 6 -151 10 -82 10 -110 -1 -148 -14 -51 -58
-96 -92 -96 -20 0 -20 -1 -4 -19 53 -58 180 -94 284 -80 218 30 317 136 412
439 23 74 55 178 71 230 17 52 46 124 65 158 l35 64 -31 -22 c-87 -62 -185
-237 -229 -409 -18 -73 -18 -73 -24 -35 -8 50 6 145 30 210 29 75 86 155 158
223 59 55 146 121 159 121 4 0 -4 -21 -18 -47 -93 -185 -119 -443 -66 -654 27
-108 105 -268 168 -343 212 -254 562 -343 832 -210 320 158 376 625 105 872
-85 78 -132 97 -245 97 -89 0 -99 -2 -155 -33 -33 -18 -78 -48 -100 -67 l-40
-35 62 25 c118 47 193 27 193 -52 0 -33 -8 -45 -79 -112 -91 -87 -102 -116
-83 -211 17 -81 15 -113 -10 -150 -43 -62 -70 -75 -162 -75 -76 0 -87 3 -136
33 -48 30 -52 31 -38 10 24 -38 104 -86 163 -98 154 -32 363 81 412 223 18 55
24 192 11 257 l-7 35 15 -28 c43 -79 46 -245 6 -324 -65 -126 -247 -223 -399
-210 -250 20 -449 313 -439 647 4 126 23 205 81 327 126 268 354 486 742 710
165 95 243 148 347 237 323 274 568 663 680 1076 25 95 59 270 53 276 -2 2
-11 -20 -20 -50z"/>
<path d="M43726 31720 c8 -74 65 -296 103 -400 48 -129 151 -333 229 -450 193
-290 410 -492 727 -676 243 -140 389 -249 526 -391 214 -220 312 -437 311
-683 -2 -198 -65 -364 -187 -486 -87 -87 -155 -123 -252 -131 -160 -13 -345
90 -405 224 -39 87 -30 239 18 323 l15 25 -7 -25 c-14 -50 -19 -136 -12 -197
17 -148 120 -253 290 -297 110 -28 210 -2 284 76 37 39 37 40 7 19 -110 -75
-268 -65 -321 21 -25 40 -28 99 -10 177 17 76 -6 126 -87 191 -66 53 -80 75
-76 125 3 52 27 68 96 62 33 -2 81 -14 105 -26 l45 -22 -45 42 c-25 23 -70 54
-100 68 -47 22 -69 26 -145 26 -79 0 -97 -4 -149 -29 -156 -77 -266 -272 -266
-473 0 -186 85 -350 230 -443 192 -123 481 -110 707 32 245 154 401 508 363
824 -16 130 -59 278 -109 369 -19 35 160 -107 212 -167 94 -111 138 -223 136
-347 -1 -68 -2 -72 -11 -41 -29 103 -81 238 -110 288 -33 55 -147 186 -155
178 -2 -2 8 -23 22 -46 25 -39 65 -155 145 -415 47 -153 93 -240 165 -311 54
-55 70 -65 145 -88 147 -47 295 -29 363 42 l27 28 -34 12 c-66 24 -71 44 -71
257 l0 190 -34 63 c-71 131 -222 222 -493 297 -185 52 -344 150 -392 243 -21
41 -21 41 148 -8 273 -80 572 -218 755 -348 116 -82 244 -202 312 -291 63 -83
144 -246 164 -331 62 -265 -11 -532 -171 -626 -52 -31 -134 -54 -189 -54 -39
1 -39 1 27 25 183 65 285 177 293 323 4 79 -10 114 -19 47 -27 -180 -128 -245
-452 -290 -309 -43 -392 -96 -429 -272 -13 -64 -15 -1206 -13 -9845 3 -9683 3
-9773 23 -9826 23 -64 74 -126 124 -152 53 -27 138 -47 297 -70 329 -48 410
-99 449 -284 l12 -61 8 47 c25 159 -94 313 -291 378 -36 12 -63 24 -61 26 10
10 142 -17 191 -39 147 -68 229 -243 221 -477 -13 -415 -348 -780 -940 -1025
-170 -71 -475 -164 -475 -146 0 16 59 88 100 123 66 57 162 102 340 158 211
67 305 115 391 200 99 98 110 135 107 355 -3 162 -2 175 18 202 11 15 35 32
52 38 18 5 32 13 32 17 0 17 -86 69 -139 85 -109 31 -284 -6 -375 -80 -91 -75
-141 -179 -225 -464 -53 -180 -85 -263 -123 -316 l-23 -32 34 24 c83 60 190
242 232 396 12 44 24 82 26 85 3 3 3 -39 1 -92 -5 -88 -9 -105 -45 -181 -46
-95 -131 -193 -229 -263 -34 -24 -64 -44 -68 -44 -4 0 2 17 12 37 27 54 60
154 78 237 21 94 21 289 0 384 -83 378 -361 635 -706 649 -343 15 -580 -199
-580 -524 0 -338 275 -586 538 -485 49 19 167 100 159 109 -2 2 -24 -5 -48
-16 -101 -44 -172 -36 -187 23 -14 52 -3 74 74 142 86 78 102 114 85 195 -25
115 -5 180 69 223 63 37 177 25 252 -26 41 -28 45 -21 9 15 -105 109 -282 114
-438 12 -100 -66 -144 -156 -144 -294 0 -47 5 -101 11 -120 18 -63 2 -43 -21
26 -33 99 -33 210 2 283 35 73 98 133 184 176 84 41 138 51 226 43 182 -16
348 -189 410 -426 28 -107 28 -279 0 -386 -84 -320 -344 -603 -796 -865 -158
-91 -229 -138 -320 -213 -86 -69 -246 -231 -316 -319 -147 -184 -278 -425
-355 -654 -67 -201 -130 -515 -69 -343 113 319 345 592 599 707 136 62 211 75
421 74 154 -1 209 -5 290 -22 189 -41 301 -119 372 -263 66 -133 106 -172 220
-210 37 -12 79 -36 105 -58 37 -33 43 -44 43 -79 0 -27 -8 -52 -23 -71 -28
-39 -21 -39 39 0 121 77 231 235 269 385 25 98 27 274 4 377 -53 235 -216 405
-464 485 -310 100 -689 22 -1039 -212 -53 -36 -118 -86 -146 -111 -37 -35 -41
-41 -15 -23 169 117 381 214 580 265 93 24 123 27 270 28 130 0 180 -4 235
-19 77 -21 175 -62 120 -50 -134 28 -182 32 -330 29 -116 -3 -185 -9 -250 -24
-274 -64 -551 -196 -796 -380 -67 -51 -77 -56 -65 -32 32 61 144 202 240 299
364 373 806 538 1416 528 123 -2 251 -11 320 -21 159 -23 269 -17 342 18 53
26 158 104 158 117 0 3 -15 10 -32 15 -24 7 -42 25 -65 60 -77 122 -146 172
-270 196 -57 10 -222 5 -210 -8 3 -2 34 -10 70 -18 66 -14 146 -50 182 -82 48
-43 43 -51 -10 -18 -96 58 -211 85 -334 80 l-64 -2 104 37 c224 79 429 186
584 305 91 70 228 211 284 294 88 129 146 283 170 451 17 113 7 373 -18 464
-46 172 -145 317 -275 404 -143 96 -250 120 -462 106 -76 -5 -156 -8 -177 -6
l-37 3 2 9552 3 9552 210 -3 c193 -4 216 -2 280 18 109 34 192 85 276 170 134
135 197 299 206 537 12 302 -55 537 -211 744 -176 233 -469 427 -836 556 l-95
33 76 0 c41 0 102 5 135 11 61 11 196 68 208 88 4 6 12 11 18 11 7 0 -1 -14
-18 -31 -40 -42 -136 -87 -219 -102 -70 -13 -70 -13 -30 -20 70 -12 180 -8
236 9 70 21 150 75 181 122 14 20 36 54 49 75 14 22 38 42 58 50 l33 12 -48
43 c-27 24 -77 57 -112 74 -86 43 -162 44 -452 7 -194 -25 -560 -5 -776 42
-436 94 -841 379 -1079 759 -23 37 -25 42 -8 30 270 -195 416 -279 613 -353
134 -50 239 -75 391 -93 143 -16 277 -9 404 20 33 8 61 13 63 11 2 -2 -21 -12
-50 -23 -209 -78 -471 -75 -721 8 -117 39 -327 142 -437 214 -78 52 -81 53
-40 16 60 -54 179 -139 272 -195 211 -127 513 -207 713 -190 345 30 577 190
672 462 26 73 27 89 28 243 0 154 -2 171 -28 247 -48 142 -156 279 -277 352
l-40 23 25 -43 c29 -51 31 -69 10 -110 -19 -36 -68 -67 -163 -104 -93 -35
-128 -69 -189 -187 -76 -149 -166 -221 -326 -262 -131 -34 -368 -50 -497 -35
-254 31 -492 176 -665 407 -65 87 -167 277 -205 382 l-20 55 6 -55z"/>
<path d="M788 29826 c-177 -52 -291 -164 -342 -335 -22 -76 -21 -78 23 -38 48
44 97 55 137 33 16 -9 61 -41 99 -71 166 -131 323 -132 470 -5 117 102 238
158 347 163 31 1 54 5 50 9 -14 13 -224 78 -323 99 -108 23 -312 32 -394 17
-34 -6 -30 -3 25 19 60 25 75 27 205 27 l140 0 129 -47 c144 -53 260 -77 346
-71 109 8 112 20 4 27 -134 8 -196 26 -349 103 -153 76 -225 94 -380 93 -84 0
-128 -5 -187 -23z"/>
<path d="M46934 29830 c-39 -10 -127 -46 -195 -79 -148 -74 -202 -89 -333 -98
-102 -6 -104 -15 -10 -27 72 -10 211 16 342 63 152 56 186 63 287 63 92 -1
185 -20 233 -48 l27 -15 -25 6 c-56 14 -212 17 -291 6 -101 -15 -280 -60 -369
-94 l-65 -25 50 -7 c130 -18 213 -57 329 -152 104 -85 151 -105 242 -106 63
-1 80 3 145 35 41 20 99 58 128 83 30 26 66 51 80 57 39 14 88 0 131 -38 l38
-35 -9 41 c-44 195 -178 327 -383 375 -87 21 -264 18 -352 -5z"/>
<path d="M844 6951 c-53 -19 -159 -86 -184 -116 -34 -41 -108 -57 -153 -34
-12 6 -35 23 -51 38 l-28 26 7 -35 c32 -153 135 -281 277 -344 119 -53 259
-67 403 -42 101 18 135 31 265 98 124 64 225 90 346 91 108 0 89 18 -26 25
-96 5 -208 -16 -334 -63 -115 -43 -210 -65 -286 -65 -67 0 -179 23 -217 44
l-28 16 45 -5 c25 -3 63 -7 85 -10 100 -11 318 29 510 93 l110 37 -72 7 c-119
12 -215 60 -357 178 -32 27 -79 56 -104 65 -60 20 -145 19 -208 -4z"/>
<path d="M47044 6950 c-28 -11 -78 -44 -110 -72 -116 -101 -221 -152 -344
-166 l-65 -8 110 -37 c225 -75 409 -104 555 -86 36 4 74 10 85 14 11 3 2 -4
-20 -14 -122 -61 -291 -65 -442 -11 -214 77 -241 83 -363 84 -75 1 -122 -3
-135 -11 -18 -11 -15 -12 22 -10 63 5 190 -11 248 -30 28 -8 82 -32 120 -51
39 -19 92 -46 119 -60 79 -39 205 -61 326 -57 269 9 454 143 515 374 7 28 9
51 4 51 -5 0 -9 -4 -9 -9 0 -18 -77 -61 -109 -61 -40 0 -61 11 -131 68 -123
101 -266 136 -376 92z"/>
<path d="M4120 6058 c-181 -17 -264 -87 -263 -223 0 -35 7 -73 16 -91 19 -36
78 -90 116 -107 14 -6 105 -14 201 -17 204 -7 239 -18 325 -105 121 -121 150
-199 149 -400 0 -119 -4 -156 -27 -243 -27 -102 -86 -270 -114 -325 -8 -16
-13 -30 -11 -32 2 -2 33 9 70 25 110 47 281 99 380 115 205 33 344 13 463 -66
84 -57 124 -99 162 -172 26 -49 28 -62 33 -227 6 -188 12 -212 69 -273 40 -44
80 -60 146 -61 151 -2 225 109 225 340 0 182 -57 333 -171 458 -108 118 -237
200 -389 248 -65 20 -95 23 -220 23 -155 -1 -245 -17 -381 -70 -34 -14 -64
-24 -65 -22 -2 1 11 41 27 87 53 150 72 259 66 395 -7 175 -56 312 -161 452
-162 216 -384 315 -646 291z m680 -545 c66 -175 70 -408 10 -643 -10 -41 -18
-75 -17 -77 2 -1 36 7 77 17 124 32 209 42 340 41 152 -1 247 -22 368 -82 91
-45 104 -59 26 -30 -108 41 -243 64 -384 64 -184 0 -333 -32 -485 -104 -32
-15 -61 -27 -62 -25 -2 2 12 36 31 77 119 252 134 558 41 831 -14 40 -25 75
-25 78 1 13 62 -101 80 -147z"/>
<path d="M43835 6058 c-99 -8 -221 -51 -302 -106 -73 -50 -197 -180 -242 -255
-140 -235 -152 -512 -35 -810 21 -52 21 -58 6 -52 -158 62 -307 95 -433 95
-233 0 -425 -84 -596 -263 -133 -138 -187 -274 -187 -472 -1 -193 50 -299 157
-330 48 -14 68 -14 140 1 41 8 113 86 131 141 12 36 15 84 14 194 -2 146 -2
146 30 212 60 121 197 222 337 248 173 33 462 -26 737 -149 4 -2 -3 21 -17 52
-44 100 -95 256 -115 356 -22 108 -27 284 -9 359 27 118 135 258 237 308 54
27 66 28 232 33 168 5 177 6 221 32 66 39 99 87 106 152 8 78 -3 122 -43 165
-65 73 -194 104 -369 89z m-470 -465 c-45 -130 -60 -228 -60 -388 1 -190 31
-326 107 -477 15 -32 27 -58 25 -58 -3 0 -38 16 -79 35 -257 118 -555 134
-829 42 -41 -14 -76 -23 -78 -21 -11 10 193 94 263 109 148 30 388 17 542 -30
27 -8 52 -15 55 -15 4 0 -4 41 -17 91 -55 210 -55 429 1 594 23 68 79 185 90
185 2 0 -8 -30 -20 -67z"/>
<path d="M3275 5053 c-313 -67 -572 -300 -755 -678 -32 -66 -70 -155 -86 -197
-16 -43 -31 -78 -34 -78 -3 0 -6 24 -8 53 -10 197 -137 402 -297 482 -52 26
-71 30 -145 30 -72 0 -94 -4 -142 -27 -77 -36 -143 -105 -164 -172 -39 -124
28 -243 143 -253 79 -8 114 24 167 149 21 52 51 58 120 24 110 -54 206 -178
240 -312 26 -99 21 -200 -19 -371 -42 -184 -77 -392 -105 -618 -36 -301 -42
-338 -65 -440 -28 -118 -66 -241 -107 -345 -39 -98 -129 -280 -138 -280 -4 0
-10 6 -13 14 -3 8 -27 27 -52 42 -54 31 -128 35 -188 10 l-37 -15 26 -26 c22
-22 25 -31 18 -58 -4 -18 -7 -47 -7 -64 0 -29 -4 -33 -28 -33 -42 0 -76 -19
-103 -59 -46 -66 -56 -113 -56 -257 l0 -133 153 2 c148 2 153 3 205 31 63 35
94 75 94 119 0 31 2 33 37 33 20 0 48 3 63 8 22 6 32 3 52 -18 25 -24 26 -24
36 -6 6 11 15 41 20 67 12 64 -4 122 -45 167 l-32 36 42 24 c97 57 304 141
459 186 156 45 273 65 556 96 145 16 469 71 620 105 155 36 185 40 261 35 163
-11 297 -74 377 -179 97 -127 96 -183 -2 -208 -102 -26 -149 -126 -102 -218
40 -76 138 -109 240 -79 61 18 147 107 176 183 45 117 23 236 -64 347 -94 119
-263 205 -424 215 l-83 6 103 39 c453 170 742 425 850 748 30 89 32 104 32
240 1 126 -2 154 -22 215 -71 211 -216 369 -395 429 -214 72 -468 -37 -570
-243 -30 -61 -32 -73 -32 -166 0 -93 2 -105 33 -167 84 -171 264 -228 402
-127 46 34 80 111 80 180 0 70 -9 96 -50 143 -40 45 -91 60 -156 46 -25 -6
-48 -9 -50 -7 -8 8 19 79 41 105 13 15 47 40 77 55 43 22 67 27 124 27 163 0
312 -128 385 -332 28 -80 32 -226 6 -307 -88 -282 -355 -532 -697 -655 -74
-27 -261 -76 -290 -76 -8 0 10 26 41 58 214 220 230 461 44 648 -175 176 -442
191 -590 33 -43 -46 -94 -133 -84 -143 3 -3 29 1 59 9 65 17 124 19 151 5 16
-9 19 -22 19 -75 0 -102 21 -137 90 -150 148 -28 175 -178 56 -308 -42 -46
-37 -47 23 -2 146 107 219 241 209 384 -5 66 -5 66 10 31 25 -59 21 -166 -10
-232 -78 -168 -283 -288 -653 -383 -132 -34 -316 -65 -382 -65 l-36 0 61 40
c113 73 152 164 98 227 -23 27 -28 28 -113 28 -150 -1 -292 -64 -525 -234 -11
-8 3 15 30 52 181 239 259 516 167 594 -64 55 -152 9 -234 -121 -29 -47 -31
-48 -31 -22 0 111 75 456 135 621 107 297 257 455 433 456 61 1 126 -13 152
-32 12 -9 11 -10 -5 -4 -78 26 -196 9 -281 -41 -57 -33 -129 -104 -173 -168
l-34 -48 57 45 c61 51 121 72 175 63 66 -10 83 -31 131 -162 15 -40 46 -54
124 -54 84 0 97 -11 97 -80 0 -30 -7 -77 -15 -105 -8 -27 -14 -51 -12 -53 2
-2 28 9 56 23 67 34 139 106 170 170 22 44 25 63 25 160 0 106 -1 113 -37 188
-48 99 -127 180 -221 227 -167 82 -347 38 -531 -131 -39 -35 -57 -47 -53 -34
3 11 13 56 22 100 53 249 177 480 349 650 161 160 340 248 500 247 152 -2 278
-54 382 -157 104 -103 143 -221 109 -329 -27 -85 -106 -166 -163 -166 -18 0
-18 4 -9 44 36 157 -129 267 -289 192 -151 -70 -173 -283 -41 -403 156 -140
401 -124 549 35 186 202 184 468 -7 679 -56 63 -173 143 -252 173 -127 48
-288 61 -418 33z m-740 -2315 c-25 -76 -104 -227 -184 -350 -39 -60 -66 -108
-61 -108 5 0 11 4 15 9 10 17 248 159 335 200 131 62 158 61 37 -2 -170 -89
-395 -249 -602 -432 -122 -107 -126 -108 -39 -9 226 253 439 560 492 706 22
64 29 52 7 -14z"/>
<path d="M44534 5054 c-142 -29 -265 -97 -364 -200 -179 -188 -203 -421 -65
-625 106 -156 268 -221 443 -180 76 19 161 78 201 140 79 122 40 282 -83 349
-44 23 -160 23 -209 -2 -63 -31 -82 -68 -82 -159 0 -87 -3 -89 -66 -57 -42 22
-89 85 -110 148 -6 19 -9 62 -7 97 17 203 255 389 497 387 357 -3 719 -372
842 -858 42 -167 42 -168 -42 -90 -48 44 -101 81 -157 109 -84 41 -88 42 -186
42 -90 -1 -107 -4 -159 -29 -77 -37 -170 -125 -212 -200 -98 -175 -75 -372 55
-489 39 -35 124 -87 143 -87 2 0 -5 30 -14 68 -22 84 -23 122 -3 150 13 19 24
22 90 22 66 0 78 3 99 24 13 13 27 37 30 53 17 83 78 143 144 143 44 0 109
-29 164 -72 l41 -33 -31 45 c-49 72 -137 148 -210 183 -59 27 -79 32 -150 32
-59 0 -77 3 -65 10 9 6 60 10 112 10 87 0 100 -3 148 -30 65 -35 148 -123 198
-208 102 -174 198 -515 229 -812 l6 -60 -36 60 c-89 150 -213 190 -260 84 -52
-113 38 -353 224 -598 25 -33 22 -32 -39 15 -220 169 -461 252 -576 198 -43
-20 -61 -68 -44 -118 13 -39 92 -118 144 -143 20 -9 36 -20 36 -23 0 -18 -303
32 -461 76 -364 100 -567 233 -624 405 -20 58 -17 152 6 207 13 32 14 28 14
-65 0 -91 2 -103 33 -166 35 -70 130 -175 193 -211 l34 -20 -32 37 c-63 72
-89 146 -73 205 13 52 54 87 122 106 74 21 88 43 92 134 1 40 8 77 15 86 17
20 79 21 155 1 33 -9 61 -14 63 -11 10 10 -52 111 -93 153 -61 60 -139 95
-229 101 -278 18 -534 -257 -475 -509 24 -101 122 -260 197 -319 32 -25 21
-25 -88 -1 -267 60 -516 194 -681 369 -227 241 -286 499 -167 734 34 68 114
158 173 195 91 58 196 71 282 34 67 -29 123 -87 131 -135 6 -37 6 -37 -23 -29
-129 36 -229 -46 -228 -187 1 -139 88 -224 229 -224 111 -1 194 54 249 162
122 240 -29 521 -320 597 -68 18 -111 19 -185 5 -159 -30 -329 -168 -407 -330
-58 -121 -75 -195 -75 -325 0 -237 89 -434 282 -625 152 -152 373 -284 624
-375 l92 -34 -61 -1 c-232 -1 -464 -159 -529 -359 -44 -135 30 -312 157 -375
93 -46 208 -27 258 44 33 46 38 124 11 168 -23 36 -76 72 -106 72 -11 0 -31 7
-43 16 -36 25 -30 80 18 152 74 111 169 175 307 206 99 22 174 20 295 -8 245
-58 446 -92 777 -131 251 -29 393 -60 574 -121 129 -45 387 -160 387 -174 0
-4 -10 -15 -21 -26 -30 -26 -59 -92 -59 -135 0 -19 7 -57 16 -84 l17 -48 17
24 c14 18 26 22 57 20 21 -1 54 -3 73 -4 34 -1 35 -3 36 -41 0 -33 6 -45 41
-75 65 -58 117 -71 273 -69 l135 1 -1 141 c0 124 -3 147 -23 194 -32 71 -80
112 -131 112 -37 0 -39 2 -31 23 5 12 5 31 0 42 -14 36 -9 75 12 96 23 23 24
22 -16 36 -85 31 -150 21 -214 -33 l-40 -35 -18 33 c-52 99 -120 258 -158 373
-58 172 -90 323 -114 535 -42 359 -71 534 -136 819 -21 90 -25 129 -20 180 19
193 86 317 218 402 79 51 112 57 143 28 13 -12 24 -31 24 -42 0 -35 48 -104
84 -121 46 -22 83 -20 136 7 61 30 90 82 90 162 0 76 -24 128 -81 180 -74 68
-130 90 -229 90 -104 0 -166 -26 -252 -104 -108 -99 -178 -242 -195 -401 l-8
-75 -29 80 c-68 191 -177 391 -292 533 -225 281 -552 418 -850 356z m1151
-2503 c97 -158 213 -307 449 -580 12 -14 -19 11 -69 55 -249 220 -512 407
-680 485 -33 15 -53 28 -45 28 42 2 285 -126 428 -226 35 -24 60 -38 56 -31
-5 7 -29 45 -55 83 -68 103 -138 227 -175 314 -43 98 -43 128 0 36 18 -38 59
-112 91 -164z"/>
<path d="M4517 4380 c4 -4 37 -17 73 -29 94 -33 259 -121 352 -188 106 -76
231 -210 292 -311 67 -112 112 -251 126 -382 10 -96 9 -133 -6 -303 -12 -141
-47 -258 -104 -345 -45 -70 -74 -93 -200 -161 -112 -60 -140 -90 -176 -185
-38 -98 -76 -152 -120 -166 -31 -11 -41 -9 -85 13 l-49 24 16 -26 c93 -146
202 -234 359 -287 106 -36 281 -44 406 -20 446 87 655 573 482 1120 -49 155
-132 310 -254 472 -91 121 -114 138 -46 34 199 -307 297 -641 267 -917 -10
-95 -47 -234 -71 -272 -9 -13 -10 -13 -4 3 13 42 35 196 39 271 17 355 -136
765 -432 1160 l-37 50 30 -19 c152 -96 322 -244 426 -374 205 -254 323 -522
374 -852 31 -192 30 -608 0 -780 -1 -8 -6 -52 -10 -96 -11 -131 22 -229 110
-332 l38 -43 17 38 c12 26 31 46 61 62 135 73 200 191 198 360 -1 108 -13 147
-23 76 -15 -99 -76 -218 -125 -244 -15 -9 -12 0 14 38 52 78 76 161 82 285 l6
109 37 -104 c148 -417 368 -721 644 -889 173 -105 330 -143 591 -144 191 -1
270 12 391 64 180 78 318 232 375 419 21 71 22 86 16 278 l-7 203 15459 0
15459 0 4 -23 c2 -13 1 -63 -3 -112 -3 -50 -5 -137 -4 -195 5 -177 68 -314
205 -443 129 -122 298 -185 525 -194 220 -9 402 25 570 107 125 61 207 123
322 244 160 167 307 417 396 674 l43 121 1 -89 c0 -48 6 -112 13 -142 13 -53
55 -152 86 -198 9 -14 -4 -3 -29 23 -50 52 -85 130 -94 210 -10 83 -26 36 -26
-75 0 -82 5 -115 22 -159 30 -78 73 -135 129 -169 77 -47 112 -80 112 -106 0
-38 16 -29 69 42 73 96 92 155 90 274 -1 54 -5 121 -10 151 -32 198 -32 525 0
736 46 309 121 507 281 746 117 176 381 430 522 503 l31 16 -35 -43 c-189
-234 -361 -591 -415 -864 -26 -132 -23 -400 5 -510 11 -44 19 -81 17 -83 -5
-5 -45 107 -63 177 -23 95 -23 350 1 451 45 188 137 405 242 567 68 105 40 84
-50 -36 -122 -165 -207 -333 -259 -513 -95 -328 -36 -666 150 -867 129 -140
264 -200 469 -208 221 -10 390 46 525 173 60 57 130 147 130 168 0 3 -14 -3
-30 -16 -82 -61 -169 -1 -217 151 -25 78 -77 131 -185 186 -51 27 -113 68
-139 91 -113 107 -171 324 -165 624 3 107 9 165 24 221 88 329 327 577 709
735 106 45 107 45 53 39 -30 -4 -114 -22 -186 -40 -556 -142 -1043 -508 -1315
-988 -248 -440 -504 -702 -798 -817 -141 -55 -334 -67 -476 -30 -195 50 -325
146 -406 300 -21 39 -24 59 -24 150 0 97 2 110 32 172 63 134 171 217 293 226
68 4 171 -16 220 -44 22 -13 22 -14 3 -9 -157 42 -306 14 -392 -74 -82 -82
-133 -227 -117 -331 9 -59 57 -142 98 -171 28 -19 30 -20 16 -3 -35 40 -61
117 -61 179 0 138 88 199 240 167 80 -18 116 -2 198 83 39 40 79 76 89 79 26
9 84 -12 96 -34 16 -31 11 -81 -15 -144 -13 -33 -23 -61 -21 -63 7 -7 86 105
108 153 18 38 23 67 23 129 0 71 -4 88 -32 146 -58 117 -187 217 -330 254 -74
19 -213 19 -287 0 -250 -65 -401 -289 -383 -569 21 -339 272 -614 635 -697
194 -44 425 -20 616 65 31 14 56 22 56 17 0 -17 -92 -131 -153 -187 -110 -104
-247 -159 -374 -152 -50 3 -54 4 -28 11 217 59 387 151 455 247 l23 32 -41
-26 c-56 -35 -146 -70 -272 -106 -266 -75 -387 -129 -465 -205 -137 -134 -162
-365 -55 -515 27 -38 34 -38 45 2 20 66 102 92 235 75 104 -14 200 -4 264 27
123 60 230 229 301 476 43 152 100 271 160 338 44 49 111 99 120 90 6 -6 -39
-174 -77 -283 -131 -387 -345 -736 -555 -907 -192 -157 -356 -220 -568 -221
-277 -1 -450 118 -484 331 -6 34 -6 61 0 67 6 5 9 2 9 -9 0 -27 66 -163 101
-207 71 -90 201 -143 299 -120 l35 7 -50 8 c-165 25 -236 115 -275 347 -12 68
-27 162 -35 209 -8 47 -22 109 -31 139 -21 73 -88 143 -161 171 l-54 20
-15724 0 c-15513 0 -15725 0 -15775 -19 -64 -24 -112 -60 -139 -105 -26 -42
-55 -158 -75 -301 -35 -253 -60 -321 -140 -392 -45 -40 -84 -56 -166 -70 -43
-7 -44 -7 -15 -13 53 -11 136 -1 189 23 91 43 159 127 208 257 l29 75 -5 -60
c-10 -138 -79 -242 -199 -299 -95 -45 -170 -60 -297 -59 -331 2 -628 207 -873
603 -62 102 -166 321 -215 456 -45 122 -107 343 -98 351 10 11 98 -61 135
-110 59 -79 96 -160 141 -313 79 -268 176 -421 307 -482 57 -27 61 -27 230
-24 206 3 233 -4 262 -68 l18 -41 32 37 c65 80 82 222 41 345 -28 83 -49 116
-109 172 -79 74 -162 111 -424 188 -94 28 -205 67 -247 87 -41 20 -79 38 -85
40 -20 9 71 -80 116 -114 68 -50 176 -100 276 -129 120 -35 121 -35 13 -31
-139 5 -252 57 -360 165 -49 49 -143 171 -137 178 2 2 33 -10 70 -27 187 -85
425 -106 622 -56 333 86 556 311 610 616 26 145 -4 320 -74 429 -103 160 -265
238 -476 228 -117 -5 -220 -39 -305 -102 -196 -144 -226 -384 -70 -556 l39
-44 -24 60 c-30 72 -33 145 -7 167 51 45 110 26 171 -55 67 -88 88 -95 251
-82 75 6 89 4 117 -14 46 -29 73 -88 73 -159 0 -48 -7 -73 -34 -127 l-33 -67
38 38 c96 94 110 230 38 381 -37 77 -115 151 -188 177 -57 20 -147 25 -226 13
-64 -10 -40 7 41 28 183 47 327 -23 416 -203 42 -83 43 -88 43 -181 -1 -85 -4
-103 -30 -156 -44 -93 -139 -182 -255 -239 -227 -112 -473 -105 -721 19 -102
51 -242 159 -339 262 -134 141 -212 252 -384 548 -243 416 -680 757 -1171 914
-140 45 -390 100 -368 81z"/>
<path d="M41455 1783 c-4 -10 -9 -52 -12 -94 -7 -89 12 -188 62 -324 53 -146
56 -156 62 -240 6 -92 -9 -201 -37 -260 l-19 -40 6 40 c12 71 6 248 -11 339
-18 95 -79 303 -100 344 -12 23 -13 20 -19 -44 -9 -114 -63 -220 -182 -362
-111 -131 -95 -299 45 -469 78 -94 82 -146 18 -212 l-33 -34 35 5 c250 41 413
281 396 583 -7 134 -25 196 -101 350 -71 145 -95 234 -97 357 0 43 -2 78 -3
78 -2 0 -6 -8 -10 -17z"/>
<path d="M6637 1694 c-7 -122 -32 -206 -103 -344 -69 -134 -94 -231 -94 -364
0 -185 47 -321 146 -421 56 -57 169 -119 238 -131 l39 -7 -31 39 c-36 45 -48
88 -34 124 6 14 33 54 61 89 149 183 155 346 19 496 -87 96 -156 232 -159 312
-1 15 -4 39 -8 53 -6 21 -13 6 -43 -85 -61 -184 -80 -284 -82 -430 0 -71 2
-148 6 -170 l7 -40 -16 35 c-30 66 -43 135 -43 222 -1 106 9 153 60 289 47
127 72 260 64 337 -11 102 -21 100 -27 -4z"/>
</g>
</svg>
