<svg width="454" height="67" viewBox="0 0 454 67" fill="none" xmlns="http://www.w3.org/2000/svg">
<path d="M107.556 38.9091C106.51 38.9091 105.548 38.7412 104.669 38.4054C103.791 38.0567 103.029 37.5724 102.383 36.9525C101.738 36.3197 101.234 35.5836 100.872 34.7441C100.511 33.9046 100.33 32.9813 100.33 31.9739C100.33 30.9666 100.511 30.0432 100.872 29.2037C101.234 28.3643 101.738 27.6346 102.383 27.0147C103.042 26.3819 103.811 25.8976 104.689 25.5618C105.567 25.2131 106.536 25.0388 107.595 25.0388C108.666 25.0388 109.648 25.2131 110.539 25.5618C111.43 25.9105 112.186 26.4335 112.806 27.1309L111.605 28.332C111.049 27.7896 110.442 27.3957 109.784 27.1503C109.138 26.892 108.434 26.7629 107.672 26.7629C106.897 26.7629 106.174 26.892 105.502 27.1503C104.844 27.4086 104.269 27.7702 103.778 28.2351C103.3 28.7001 102.926 29.2554 102.655 29.9011C102.396 30.5339 102.267 31.2249 102.267 31.9739C102.267 32.71 102.396 33.401 102.655 34.0467C102.926 34.6795 103.3 35.2349 103.778 35.7127C104.269 36.1776 104.844 36.5392 105.502 36.7975C106.161 37.0558 106.878 37.185 107.653 37.185C108.376 37.185 109.067 37.0752 109.725 36.8556C110.397 36.6232 111.017 36.2422 111.585 35.7127L112.689 37.185C112.018 37.7532 111.23 38.1858 110.326 38.4829C109.435 38.767 108.511 38.9091 107.556 38.9091ZM110.83 36.9331V31.8964H112.689V37.185L110.83 36.9331ZM122.694 38.7541V25.1937H127.983C129.171 25.1937 130.185 25.381 131.024 25.7555C131.864 26.13 132.509 26.6725 132.961 27.3828C133.413 28.0931 133.639 28.939 133.639 29.9205C133.639 30.902 133.413 31.7479 132.961 32.4582C132.509 33.1556 131.864 33.6916 131.024 34.0661C130.185 34.4406 129.171 34.6279 127.983 34.6279H123.76L124.631 33.7368V38.7541H122.694ZM131.76 38.7541L128.312 33.8336H130.385L133.872 38.7541H131.76ZM124.631 33.9305L123.76 32.9813H127.925C129.164 32.9813 130.101 32.7165 130.734 32.187C131.379 31.6446 131.702 30.8891 131.702 29.9205C131.702 28.9519 131.379 28.2028 130.734 27.6733C130.101 27.1438 129.164 26.8791 127.925 26.8791H123.76L124.631 25.9105V33.9305ZM144.828 31.0441H151.802V32.6907H144.828V31.0441ZM145.002 37.0687H152.906V38.7541H143.065V25.1937H152.635V26.8791H145.002V37.0687ZM160.285 38.7541L166.426 25.1937H168.344L174.504 38.7541H172.47L166.988 26.2786H167.763L162.28 38.7541H160.285ZM162.9 35.364L163.423 33.8142H171.056L171.618 35.364H162.9ZM184.835 38.7541V26.8791H180.185V25.1937H191.402V26.8791H186.752V38.7541H184.835ZM205.682 38.9091C204.648 38.9091 203.693 38.7412 202.815 38.4054C201.949 38.0567 201.194 37.5724 200.548 36.9525C199.915 36.3197 199.418 35.5836 199.056 34.7441C198.695 33.9046 198.514 32.9813 198.514 31.9739C198.514 30.9666 198.695 30.0432 199.056 29.2037C199.418 28.3643 199.922 27.6346 200.567 27.0147C201.213 26.3819 201.969 25.8976 202.834 25.5618C203.712 25.2131 204.668 25.0388 205.701 25.0388C206.747 25.0388 207.709 25.2196 208.587 25.5812C209.478 25.9299 210.234 26.4529 210.854 27.1503L209.595 28.3707C209.078 27.8283 208.497 27.428 207.851 27.1697C207.205 26.8985 206.515 26.7629 205.778 26.7629C205.016 26.7629 204.306 26.892 203.648 27.1503C203.002 27.4086 202.44 27.7702 201.962 28.2351C201.484 28.7001 201.11 29.2554 200.839 29.9011C200.58 30.5339 200.451 31.2249 200.451 31.9739C200.451 32.723 200.58 33.4204 200.839 34.0661C201.11 34.6989 201.484 35.2478 201.962 35.7127C202.44 36.1776 203.002 36.5392 203.648 36.7975C204.306 37.0558 205.016 37.185 205.778 37.185C206.515 37.185 207.205 37.0558 207.851 36.7975C208.497 36.5263 209.078 36.113 209.595 35.5577L210.854 36.7782C210.234 37.4755 209.478 38.005 208.587 38.3667C207.709 38.7283 206.741 38.9091 205.682 38.9091ZM229.638 25.1937H231.575V38.7541H229.638V25.1937ZM221.85 38.7541H219.913V25.1937H221.85V38.7541ZM229.812 32.71H221.657V31.0247H229.812V32.71ZM239.877 38.7541L246.017 25.1937H247.935L254.095 38.7541H252.061L246.579 26.2786H247.354L241.872 38.7541H239.877ZM242.492 35.364L243.015 33.8142H250.647L251.209 35.364H242.492ZM262.414 38.7541V25.1937H264.003L272.972 36.3326H272.139V25.1937H274.076V38.7541H272.488L263.518 27.6152H264.351V38.7541H262.414ZM290.552 38.9091C289.506 38.9091 288.544 38.7412 287.666 38.4054C286.788 38.0567 286.026 37.5724 285.38 36.9525C284.734 36.3197 284.231 35.5836 283.869 34.7441C283.507 33.9046 283.327 32.9813 283.327 31.9739C283.327 30.9666 283.507 30.0432 283.869 29.2037C284.231 28.3643 284.734 27.6346 285.38 27.0147C286.039 26.3819 286.807 25.8976 287.685 25.5618C288.564 25.2131 289.532 25.0388 290.591 25.0388C291.663 25.0388 292.645 25.2131 293.536 25.5618C294.427 25.9105 295.182 26.4335 295.802 27.1309L294.601 28.332C294.046 27.7896 293.439 27.3957 292.78 27.1503C292.134 26.892 291.431 26.7629 290.669 26.7629C289.894 26.7629 289.171 26.892 288.499 27.1503C287.84 27.4086 287.266 27.7702 286.775 28.2351C286.297 28.7001 285.923 29.2554 285.651 29.9011C285.393 30.5339 285.264 31.2249 285.264 31.9739C285.264 32.71 285.393 33.401 285.651 34.0467C285.923 34.6795 286.297 35.2349 286.775 35.7127C287.266 36.1776 287.84 36.5392 288.499 36.7975C289.158 37.0558 289.874 37.185 290.649 37.185C291.372 37.185 292.063 37.0752 292.722 36.8556C293.394 36.6232 294.014 36.2422 294.582 35.7127L295.686 37.185C295.014 37.7532 294.227 38.1858 293.323 38.4829C292.431 38.767 291.508 38.9091 290.552 38.9091ZM293.826 36.9331V31.8964H295.686V37.185L293.826 36.9331ZM307.454 31.0441H314.428V32.6907H307.454V31.0441ZM307.628 37.0687H315.532V38.7541H305.691V25.1937H315.261V26.8791H307.628V37.0687ZM325.328 38.8703C324.966 38.8703 324.656 38.7476 324.398 38.5023C324.14 38.244 324.011 37.9211 324.011 37.5337C324.011 37.1462 324.14 36.8298 324.398 36.5844C324.656 36.3391 324.966 36.2164 325.328 36.2164C325.677 36.2164 325.974 36.3391 326.219 36.5844C326.477 36.8298 326.606 37.1462 326.606 37.5337C326.606 37.9211 326.477 38.244 326.219 38.5023C325.974 38.7476 325.677 38.8703 325.328 38.8703ZM341.523 38.9091C340.49 38.9091 339.535 38.7412 338.656 38.4054C337.791 38.0567 337.036 37.5724 336.39 36.9525C335.757 36.3197 335.26 35.5836 334.898 34.7441C334.537 33.9046 334.356 32.9813 334.356 31.9739C334.356 30.9666 334.537 30.0432 334.898 29.2037C335.26 28.3643 335.764 27.6346 336.409 27.0147C337.055 26.3819 337.81 25.8976 338.676 25.5618C339.554 25.2131 340.51 25.0388 341.543 25.0388C342.589 25.0388 343.551 25.2196 344.429 25.5812C345.32 25.9299 346.076 26.4529 346.696 27.1503L345.437 28.3707C344.92 27.8283 344.339 27.428 343.693 27.1697C343.047 26.8985 342.356 26.7629 341.62 26.7629C340.858 26.7629 340.148 26.892 339.489 27.1503C338.844 27.4086 338.282 27.7702 337.804 28.2351C337.326 28.7001 336.952 29.2554 336.68 29.9011C336.422 30.5339 336.293 31.2249 336.293 31.9739C336.293 32.723 336.422 33.4204 336.68 34.0661C336.952 34.6989 337.326 35.2478 337.804 35.7127C338.282 36.1776 338.844 36.5392 339.489 36.7975C340.148 37.0558 340.858 37.185 341.62 37.185C342.356 37.185 343.047 37.0558 343.693 36.7975C344.339 36.5263 344.92 36.113 345.437 35.5577L346.696 36.7782C346.076 37.4755 345.32 38.005 344.429 38.3667C343.551 38.7283 342.582 38.9091 341.523 38.9091ZM365.48 25.1937H367.417V38.7541H365.48V25.1937ZM357.692 38.7541H355.755V25.1937H357.692V38.7541ZM365.654 32.71H357.499V31.0247H365.654V32.71ZM377.772 38.7541V25.1937H383.06C384.248 25.1937 385.262 25.381 386.102 25.7555C386.941 26.13 387.587 26.6725 388.039 27.3828C388.491 28.0931 388.717 28.939 388.717 29.9205C388.717 30.902 388.491 31.7479 388.039 32.4582C387.587 33.1556 386.941 33.6916 386.102 34.0661C385.262 34.4406 384.248 34.6279 383.06 34.6279H378.837L379.709 33.7368V38.7541H377.772ZM386.838 38.7541L383.39 33.8336H385.462L388.949 38.7541H386.838ZM379.709 33.9305L378.837 32.9813H383.002C384.242 32.9813 385.178 32.7165 385.811 32.187C386.457 31.6446 386.78 30.8891 386.78 29.9205C386.78 28.9519 386.457 28.2028 385.811 27.6733C385.178 27.1438 384.242 26.8791 383.002 26.8791H378.837L379.709 25.9105V33.9305ZM403.76 38.9091C401.978 38.9091 400.577 38.3989 399.557 37.3787C398.536 36.3584 398.026 34.8668 398.026 32.9038V25.1937H399.964V32.8263C399.964 34.3373 400.293 35.4415 400.952 36.1389C401.623 36.8363 402.566 37.185 403.78 37.185C405.007 37.185 405.949 36.8363 406.608 36.1389C407.28 35.4415 407.615 34.3373 407.615 32.8263V25.1937H409.495V32.9038C409.495 34.8668 408.984 36.3584 407.964 37.3787C406.957 38.3989 405.556 38.9091 403.76 38.9091ZM425.825 38.9091C424.792 38.9091 423.837 38.7412 422.958 38.4054C422.093 38.0567 421.338 37.5724 420.692 36.9525C420.059 36.3197 419.562 35.5836 419.2 34.7441C418.839 33.9046 418.658 32.9813 418.658 31.9739C418.658 30.9666 418.839 30.0432 419.2 29.2037C419.562 28.3643 420.065 27.6346 420.711 27.0147C421.357 26.3819 422.112 25.8976 422.978 25.5618C423.856 25.2131 424.812 25.0388 425.845 25.0388C426.891 25.0388 427.853 25.2196 428.731 25.5812C429.622 25.9299 430.378 26.4529 430.998 27.1503L429.739 28.3707C429.222 27.8283 428.641 27.428 427.995 27.1697C427.349 26.8985 426.658 26.7629 425.922 26.7629C425.16 26.7629 424.45 26.892 423.791 27.1503C423.146 27.4086 422.584 27.7702 422.106 28.2351C421.628 28.7001 421.254 29.2554 420.982 29.9011C420.724 30.5339 420.595 31.2249 420.595 31.9739C420.595 32.723 420.724 33.4204 420.982 34.0661C421.254 34.6989 421.628 35.2478 422.106 35.7127C422.584 36.1776 423.146 36.5392 423.791 36.7975C424.45 37.0558 425.16 37.185 425.922 37.185C426.658 37.185 427.349 37.0558 427.995 36.7975C428.641 36.5263 429.222 36.113 429.739 35.5577L430.998 36.7782C430.378 37.4755 429.622 38.005 428.731 38.3667C427.853 38.7283 426.884 38.9091 425.825 38.9091ZM449.782 25.1937H451.719V38.7541H449.782V25.1937ZM441.994 38.7541H440.057V25.1937H441.994V38.7541ZM449.956 32.71H441.801V31.0247H449.956V32.71Z" fill="#6B523B"/>
<path d="M31.0535 66.4778H0.829447V57.4804H40.2194L31.0535 66.4778Z" fill="#6B523B"/>
<path d="M31.3726 56.1113L30.9513 0.953308H40.2195L40.2194 57.4804L31.3726 56.1113Z" fill="#6B523B"/>
<path d="M55.3856 31.075H15.9957V22.4688H55.3856V31.075Z" fill="#6B523B"/>
<path d="M10.0978 0.75769H0.618896V66.4778H10.0978V0.75769Z" fill="#6B523B"/>
<path d="M71.3944 0.75769H61.9155V66.4778H71.3944V0.75769Z" fill="#6B523B"/>
<path d="M0.618896 0.75769V9.55948H71.3944L71.3944 0.75769H0.618896Z" fill="#6B523B"/>
</svg>
